<?xml version="1.0" encoding="utf-8"?>
<!-- Generator: Adobe Illustrator 23.1.0, SVG Export Plug-In . SVG Version: 6.00 Build 0)  -->
<svg version="1.1" id="Layer_1" xmlns="http://www.w3.org/2000/svg" xmlns:xlink="http://www.w3.org/1999/xlink" x="0px" y="0px"
	 viewBox="0 0 512 512" style="enable-background:new 0 0 512 512;" xml:space="preserve">
<style type="text/css">
	.st0{fill:#FF4B5F;}
</style>
<g transform="translate(0.000000,512.000000) scale(0.100000,-0.100000)">
	<path class="st0" d="M12.5,4551.1c5-30,25-89,45-130c35-72,64-103,715-755l679-680l-101-100c-207-206-278-375-267-637
		c6-127,38-241,99-346c45-77,1838-1877,1886-1893c24-8,39-7,65,5c42,18,1963,1940,1977,1978c6,16,8,41,5,57
		c-9,42-1815,1844-1899,1894c-261,155-582,140-828-37c-34-24-105-87-157-140l-95-96l-680,679c-653,651-683,680-755,715
		c-98,47-199,63-292,46c-196-35-347-178-393-372C0.5,4669.1-0.5,4633.1,12.5,4551.1z M247.5,4758.1c44,92,134,147,240,146
		c119-1,95,20,829-713l670-670l-193-192l-192-193l-655,655c-361,360-667,672-682,693C207.5,4566.1,201.5,4662.1,247.5,4758.1z
		 M1312,2456.1c11,39,35,95,53,125c44,71,1120,1146,1186,1184c158,91,347,98,511,20c70-34,105-67,881-842l807-807l-162-3l-162-3
		l-746,745c-546,545-752,745-773,748c-65,12-69,8-545-466c-255-253-553-554-663-668c-196-203-199-207-199-250v-43l745-745l745-745
		v-168c0-92-4-167-8-167s-366,359-803,798c-672,674-800,806-826,857C1282,2163.1,1268,2307.1,1312,2456.1z M2319.5,2805l563,559
		l712-712c394-394,725-716,740-721c16-7,111-11,225-11h197l-775-775l-775-775l-5,210l-5,210l-723,723c-397,397-721,724-720,727
		C1755.5,2243,2009.5,2497,2319.5,2805z"/>
</g>
</svg>
