<svg width="30" height="30" viewBox="0 0 30 30" fill="none" xmlns="http://www.w3.org/2000/svg">
<path fill-rule="evenodd" clip-rule="evenodd" d="M8.61609 17H9C9.55228 17 10 17.4477 10 18V24C10 24.5523 9.55228 25 9 25H5C4.44772 25 4 24.5523 4 24V18.9093C4.51788 19.0746 5.10092 19.0295 5.60881 18.7363L8.61609 17ZM17.927 11.6243C17.9741 11.7403 18 11.8671 18 12V24C18 24.5523 17.5523 25 17 25H13C12.4477 25 12 24.5523 12 24V15.0463L17.927 11.6243ZM26 8.78251V24C26 24.5523 25.5523 25 25 25H21C20.4477 25 20 24.5523 20 24V10.4275L21.2641 9.69766L20.9975 10.3444C20.5665 11.3896 21.078 12.5708 22.1378 12.9621C23.1701 13.3432 24.3317 12.8285 24.7516 11.8102L26 8.78251Z" fill="#003791"/>
<path d="M22.3086 5.63052L4.10881 16.1382C3.63052 16.4143 3.46664 17.0259 3.74278 17.5042C4.01893 17.9825 4.63052 18.1464 5.10881 17.8702L23.3086 7.36257L21.9219 10.7256C21.7064 11.2484 21.9581 11.8297 22.4842 12.024C23.0103 12.2182 23.6115 11.9518 23.8271 11.429L26.3266 5.36711C26.5767 4.76043 26.1962 4.10131 25.5457 4.01461L19.0463 3.14826C18.4857 3.07354 17.9543 3.46104 17.8595 4.01377C17.7647 4.56651 18.1422 5.07516 18.7028 5.14989L22.3086 5.63052Z" fill="#FF4B5F"/>
</svg>
