<svg xmlns="http://www.w3.org/2000/svg" width="40" height="40" viewBox="0 0 40 40">
    <g fill="none" fill-rule="nonzero">
        <g transform="translate(4.998 4.373)">
            <path fill="#003791" stroke="#003791" stroke-width="1.333" d="M3.646 16.329v9.221h22.5V16.33l-11.25-9.626-11.25 9.626z"/>
            <rect width="29.13" height="2.913" x=".331" y="27.674" fill="#003791" rx="1.333"/>
            <path fill="#FF4B5F" d="M21.517 5.417V2.79c0-.737.597-1.333 1.333-1.333h1.306c.736 0 1.333.596 1.333 1.333v6.123l3.475 3.058c.571.503.664 1.42.207 2.047-.457.629-1.29.73-1.861.228L14.896 3.322 2.479 14.246c-.57.502-1.404.4-1.86-.228-.458-.628-.365-1.544.206-2.047L14.07.32a1.231 1.231 0 0 1 1.654 0l5.794 5.098z"/>
        </g>
        <path fill="#FFF" d="M16.45 31.242v-2.108h-.841v2.108h-.843v-3.373h2.527v3.373h-.842zm-.42-9.277a1.264 1.264 0 1 1 .001-2.528 1.264 1.264 0 0 1-.001 2.528zm-.843.843h1.685c.698 0 1.263.567 1.263 1.265v2.952h-4.211v-2.952c0-.698.566-1.265 1.263-1.265zm8.845 8.434v-2.108h-.843v2.108h-.842v-3.373h2.527v3.373h-.842zM22.347 20.7a1.264 1.264 0 1 1 2.528-.002 1.264 1.264 0 0 1-2.528.002zm-.842 6.325v-2.108c0-1.165.942-2.109 2.105-2.109s2.106.944 2.106 2.109v2.108h-4.211zm4.211 4.217v-3.373h.842v-2.952a2.952 2.952 0 0 0-1.592-2.619c.163-.134.305-.292.422-.468l.467.422.577-.616-.741-.67c.014-.088.022-.177.025-.266a2.107 2.107 0 0 0-2.106-2.108 2.107 2.107 0 0 0-2.105 2.108c.003.08.012.16.025.24l-.762.717.577.616.484-.456c.115.183.257.346.421.485a2.952 2.952 0 0 0-1.588 2.615v2.952h.843v3.373h-3.37v-3.373h.843v-3.796a2.108 2.108 0 0 0-1.386-1.973 2.11 2.11 0 0 0 .222-2.533 2.104 2.104 0 0 0-3.89 1.133 2.11 2.11 0 0 0 .543 1.4 2.108 2.108 0 0 0-1.385 1.973v3.796h.842v3.373h11.792z"/>
    </g>
</svg>
