<?xml version="1.0" encoding="UTF-8"?>
<svg width="30px" height="30px" viewBox="0 0 30 30" version="1.1" xmlns="http://www.w3.org/2000/svg" xmlns:xlink="http://www.w3.org/1999/xlink">
    <!-- Generator: Sketch 51.3 (57544) - http://www.bohemiancoding.com/sketch -->
    <title>Icons/платежи/30/другие платежи</title>
    <desc>Created with Sketch.</desc>
    <defs></defs>
    <g id="Icons/платежи/30/другие-платежи" stroke="none" stroke-width="1" fill="none" fill-rule="evenodd">
        <path d="M26,14 L26,21.125 C26,22.1605339 25.2538079,23 24.3333333,23 L7.66666667,23 C6.74619208,23 6,22.1605339 6,21.125 L6,9.875 C6,8.83946609 6.74619208,8 7.66666667,8 L21,8 L21,11.3333333 C21,12.7971661 22.1547206,14 23.6,14 L26,14 Z M5,20.8439836 C4.41136507,20.5546499 4,19.8938696 4,19.125 L4,7.875 C4,6.83946609 4.74619208,6 5.66666667,6 L22.3333333,6 C22.9728986,6 23.5283244,6.40527458 23.8077674,7 L7,7 C5.8954305,7 5,7.8954305 5,9 L5,20.8439836 Z M8.5,10 C8.22385763,10 8,10.2238576 8,10.5 C8,10.7761424 8.22385763,11 8.5,11 L15.5,11 C15.7761424,11 16,10.7761424 16,10.5 C16,10.2238576 15.7761424,10 15.5,10 L8.5,10 Z M8.5,12 C8.22385763,12 8,12.2238576 8,12.5 C8,12.7761424 8.22385763,13 8.5,13 L15.5,13 C15.7761424,13 16,12.7761424 16,12.5 C16,12.2238576 15.7761424,12 15.5,12 L8.5,12 Z" id="Combined-Shape" fill="#003791"></path>
        <path d="M22,8 L22,11.3333333 C22,12.2538079 22.7163444,13 23.6,13 L26,13 L26,12.1666667 C26,9.86548021 24.209139,8 22,8 Z" id="Path-9" fill="#FF4B5F" fill-rule="nonzero"></path>
    </g>
</svg>