<svg width="30" height="30" viewBox="0 0 30 30" fill="none" xmlns="http://www.w3.org/2000/svg">
<path d="M23.5 14.2445L15 7.63344L6.5 14.2445V20.5H9.5V15.5C9.5 14.9477 9.94772 14.5 10.5 14.5H13.5C14.0523 14.5 14.5 14.9477 14.5 15.5V20.5H23.5V14.2445ZM4.5 22.5V23.5H25.5V22.5H4.5ZM16.5 14.5H19.5C20.0523 14.5 20.5 14.9477 20.5 15.5V18.5C20.5 19.0523 20.0523 19.5 19.5 19.5H16.5C15.9477 19.5 15.5 19.0523 15.5 18.5V15.5C15.5 14.9477 15.9477 14.5 16.5 14.5Z" fill="#003791" stroke="#003791"/>
<path d="M20 6.71938V5C20 4.44772 20.4477 4 21 4H22C22.5523 4 23 4.44772 23 5V9.11938L25.6247 11.2191C26.0559 11.5641 26.1259 12.1934 25.7808 12.6247C25.4358 13.056 24.8065 13.1259 24.3753 12.7809L14.9999 5.28057L5.62245 12.7809C5.19116 13.1259 4.56187 13.0559 4.21691 12.6246C3.87194 12.1933 3.94193 11.564 4.37323 11.2191L14.3754 3.21907C14.7406 2.92695 15.2595 2.92698 15.6247 3.21913L20 6.71938Z" fill="#FF4B5F"/>
</svg>
