<svg width="90" height="90" viewBox="0 0 90 90" fill="none" xmlns="http://www.w3.org/2000/svg">
<path fill-rule="evenodd" clip-rule="evenodd" d="M73 45C73 60.4636 60.4636 73 45 73C29.5364 73 17 60.4636 17 45C17 29.5364 29.5364 17 45 17C60.4636 17 73 29.5364 73 45Z" stroke="#003791" stroke-width="4" stroke-linecap="round" stroke-linejoin="round"/>
<path fill-rule="evenodd" clip-rule="evenodd" d="M60 45C60 60.4636 53.0612 73 44.5 73C35.9388 73 29 60.4636 29 45C29 29.5364 35.9388 17 44.5 17C53.0612 17 60 29.5364 60 45Z" stroke="#003791" stroke-width="4" stroke-linecap="round" stroke-linejoin="round"/>
<path d="M44 17V73" stroke="#003791" stroke-width="4" stroke-linecap="round" stroke-linejoin="round"/>
<path d="M73 44H17" stroke="#003791" stroke-width="4" stroke-linecap="round" stroke-linejoin="round"/>
<path d="M22 29H68" stroke="#003791" stroke-width="4" stroke-linecap="round" stroke-linejoin="round"/>
<path d="M22 60H68" stroke="#003791" stroke-width="4" stroke-linecap="round" stroke-linejoin="round"/>
<path d="M75 26C76.6569 26 78 24.6569 78 23C78 21.3431 76.6569 20 75 20C73.3431 20 72 21.3431 72 23C72 24.6569 73.3431 26 75 26Z" fill="#FF4B5F"/>
<path d="M15 69C16.6569 69 18 67.6569 18 66C18 64.3431 16.6569 63 15 63C13.3431 63 12 64.3431 12 66C12 67.6569 13.3431 69 15 69Z" fill="#FF4B5F"/>
</svg>
