<svg width="30" height="30" viewBox="0 0 30 30" fill="none" xmlns="http://www.w3.org/2000/svg">
<path fill-rule="evenodd" clip-rule="evenodd" d="M6.46875 4H17V7.33333C17 8.79716 18.1547 10 19.6 10H22V17H18C16.8954 17 16 17.8954 16 19C16 19.5973 16.2619 20.1335 16.6771 20.5C16.2619 20.8665 16 21.4026 16 22C16 22.5973 16.2619 23.1335 16.6771 23.5001C16.2619 23.8664 16 24.4026 16 25.0001H6.46875C6.20986 25.0001 6 24.7901 6 24.5313V4.46875C6 4.20986 6.20986 4 6.46875 4ZM22 4.46875V5.0662C21.7051 4.66042 21.3538 4.3008 20.9577 4H21.5313C21.7901 4 22 4.20986 22 4.46875ZM8.23437 12C8.10492 12 7.99999 12.1049 7.99999 12.2344V12.7656C7.99999 12.895 8.10492 13 8.23437 13H18.7656C18.8951 13 19 12.895 19 12.7656V12.2344C19 12.1049 18.8951 12 18.7656 12H8.23437ZM7.99999 14.2344C7.99999 14.1049 8.10492 14 8.23437 14H16.7656C16.8951 14 17 14.1049 17 14.2344V14.7656C17 14.8951 16.8951 15 16.7656 15H8.23437C8.10492 15 7.99999 14.8951 7.99999 14.7656V14.2344Z" fill="#003791"/>
<path fill-rule="evenodd" clip-rule="evenodd" d="M18 7.33333V4C20.2091 4 22 5.86546 22 8.16665V8.99999H19.6C18.7164 8.99999 18 8.25379 18 7.33333ZM17 25.0001C17 24.4476 17.4477 24 18 24H24C24.5522 24 25.0001 24.4476 25.0001 25.0001C25.0001 25.5523 24.5522 25.9999 24 25.9999H18C17.4477 25.9999 17 25.5523 17 25.0001ZM18 21C17.4477 21 17 21.4477 17 22C17 22.5523 17.4477 23 18 23H24C24.5522 23 25.0001 22.5523 25.0001 22C25.0001 21.4477 24.5522 21 24 21H18ZM17 19C17 18.4477 17.4477 18 18 18H24C24.5522 18 25.0001 18.4477 25.0001 19C25.0001 19.5523 24.5522 20 24 20H18C17.4477 20 17 19.5523 17 19Z" fill="#FF4B5F"/>
</svg>
