<svg width="90" height="90" viewBox="0 0 90 90" fill="none" xmlns="http://www.w3.org/2000/svg">
<path d="M76.0664 22.4414H67.5586V20.25C67.5586 19.1821 66.6929 18.3164 65.625 18.3164H57.375C56.3071 18.3164 55.4414 19.1821 55.4414 20.25V22.4414H40.1605L34.4083 12.9328C34.0581 12.3537 33.4307 12 32.7539 12H22.5703C21.5025 12 20.6367 12.8657 20.6367 13.9336V22.4414H13.9336C12.8657 22.4414 12 23.3071 12 24.375V32.625C12 33.6929 12.8657 34.5586 13.9336 34.5586H24.5039V65.7539H23.3438C22.5342 65.7539 21.8103 66.2583 21.5299 67.0177L18.4362 75.3966C17.9706 76.6577 18.9047 78 20.25 78H45C46.3444 78 47.2798 76.6586 46.8138 75.3966L43.7201 67.0177C43.4397 66.2583 42.7158 65.7539 41.9062 65.7539H40.7461V34.5586H55.4414V36.8789C55.4414 37.9468 56.3071 38.8125 57.375 38.8125H59.5664V43.4882L53.2745 52.4766H51.1875C50.1196 52.4766 49.2539 53.3423 49.2539 54.4102V64.7227C49.2539 65.7905 50.1196 66.6562 51.1875 66.6562H71.8125C72.8804 66.6562 73.7461 65.7905 73.7461 64.7227V54.4102C73.7461 53.3423 72.8804 52.4766 71.8125 52.4766H69.7255L63.4336 43.4882V38.8125H65.625C66.6929 38.8125 67.5586 37.9468 67.5586 36.8789V34.5586H76.0664C77.1343 34.5586 78 33.6929 78 32.625V24.375C78 23.3071 77.1343 22.4414 76.0664 22.4414ZM69.8789 62.7891H53.1211V56.3438H69.8789V62.7891ZM57.995 52.4766L61.5 47.4695L65.005 52.4766H57.995ZM24.5039 15.8672H31.6637L35.6408 22.4414C34.2455 22.4414 26.1191 22.4414 24.5039 22.4414V15.8672ZM36.8789 51.1082L28.3711 56.0711V49.2043L36.8789 44.2414V51.1082ZM42.2249 74.1328H23.0251L24.6909 69.6211H40.559L42.2249 74.1328ZM28.3711 65.7539V60.548L36.8789 55.5851V65.7539H28.3711ZM36.8789 39.7645L28.3711 44.7274V34.5586H36.8789V39.7645ZM15.8672 30.6914V26.3086H55.4414V30.6914C52.0953 30.6914 17.618 30.6914 15.8672 30.6914ZM63.6914 34.9453H59.3086V22.1836H63.6914V34.9453ZM74.1328 30.6914C72.0927 30.6914 69.4366 30.6914 67.5586 30.6914V26.3086H74.1328V30.6914Z" fill="#003791"/>
<mask id="mask0" mask-type="alpha" maskUnits="userSpaceOnUse" x="12" y="12" width="66" height="66">
<path d="M76.0664 22.4414H67.5586V20.25C67.5586 19.1821 66.6929 18.3164 65.625 18.3164H57.375C56.3071 18.3164 55.4414 19.1821 55.4414 20.25V22.4414H40.1605L34.4083 12.9328C34.0581 12.3537 33.4307 12 32.7539 12H22.5703C21.5025 12 20.6367 12.8657 20.6367 13.9336V22.4414H13.9336C12.8657 22.4414 12 23.3071 12 24.375V32.625C12 33.6929 12.8657 34.5586 13.9336 34.5586H24.5039V65.7539H23.3438C22.5342 65.7539 21.8103 66.2583 21.5299 67.0177L18.4362 75.3966C17.9706 76.6577 18.9047 78 20.25 78H45C46.3444 78 47.2798 76.6586 46.8138 75.3966L43.7201 67.0177C43.4397 66.2583 42.7158 65.7539 41.9062 65.7539H40.7461V34.5586H55.4414V36.8789C55.4414 37.9468 56.3071 38.8125 57.375 38.8125H59.5664V43.4882L53.2745 52.4766H51.1875C50.1196 52.4766 49.2539 53.3423 49.2539 54.4102V64.7227C49.2539 65.7905 50.1196 66.6562 51.1875 66.6562H71.8125C72.8804 66.6562 73.7461 65.7905 73.7461 64.7227V54.4102C73.7461 53.3423 72.8804 52.4766 71.8125 52.4766H69.7255L63.4336 43.4882V38.8125H65.625C66.6929 38.8125 67.5586 37.9468 67.5586 36.8789V34.5586H76.0664C77.1343 34.5586 78 33.6929 78 32.625V24.375C78 23.3071 77.1343 22.4414 76.0664 22.4414ZM69.8789 62.7891H53.1211V56.3438H69.8789V62.7891ZM57.995 52.4766L61.5 47.4695L65.005 52.4766H57.995ZM24.5039 15.8672H31.6637L35.6408 22.4414C34.2455 22.4414 26.1191 22.4414 24.5039 22.4414V15.8672ZM36.8789 51.1082L28.3711 56.0711V49.2043L36.8789 44.2414V51.1082ZM42.2249 74.1328H23.0251L24.6909 69.6211H40.559L42.2249 74.1328ZM28.3711 65.7539V60.548L36.8789 55.5851V65.7539H28.3711ZM36.8789 39.7645L28.3711 44.7274V34.5586H36.8789V39.7645ZM15.8672 30.6914V26.3086H55.4414V30.6914C52.0953 30.6914 17.618 30.6914 15.8672 30.6914ZM63.6914 34.9453H59.3086V22.1836H63.6914V34.9453ZM74.1328 30.6914C72.0927 30.6914 69.4366 30.6914 67.5586 30.6914V26.3086H74.1328V30.6914Z" fill="#003791"/>
</mask>
<g mask="url(#mask0)">
<rect x="48" y="52.46" width="28" height="19" fill="#FF4B5F"/>
</g>
</svg>
